# This file uses centimeters as units for non-parametric coordinates.

mtllib fluff_EYES_2.mtl
g default
v 0.808144 4.107568 1.099614
v 0.847874 4.173841 1.030459
v 0.167955 4.586478 1.213257
v 0.207686 4.652751 1.144102
v 0.107104 4.546124 1.139625
v 0.146834 4.612396 1.070470
v 0.780508 4.067214 1.050948
v 0.820238 4.133487 0.981793
v 0.443718 4.442553 1.210524
v 0.483449 4.508825 1.141369
v 0.422597 4.468471 1.067737
v 0.382867 4.402198 1.136892
v 0.655133 4.280758 1.183564
v 0.694863 4.347031 1.114409
v 0.634012 4.306676 1.040777
v 0.594282 4.240404 1.109932
v 0.337047 4.120706 1.307874
v 0.413927 4.057367 1.279052
v 0.678019 4.738087 0.914568
v 0.754898 4.674748 0.885746
v 0.631689 4.723546 0.822943
v 0.708569 4.660207 0.794121
v 0.295398 4.099713 1.257029
v 0.372277 4.036374 1.228208
v 0.589296 4.515013 1.112390
v 0.666175 4.451674 1.083568
v 0.619845 4.437133 0.991943
v 0.542966 4.500472 1.020765
v 0.472450 4.317689 1.250270
v 0.549329 4.254350 1.221449
v 0.503000 4.239810 1.129824
v 0.426120 4.303149 1.158645
v -0.500319 4.107568 1.252989
v -0.421167 4.173841 1.243197
v -0.975811 4.586478 0.809523
v -0.896660 4.652751 0.799731
v -0.953514 4.546124 0.716639
v -0.874362 4.612396 0.706847
v -0.478021 4.067214 1.201658
v -0.398869 4.133487 1.191866
v -0.807937 4.442553 1.028317
v -0.728786 4.508825 1.018525
v -0.706488 4.468471 0.925642
v -0.785640 4.402198 0.935434
v -0.659360 4.280758 1.181118
v -0.580208 4.347031 1.171326
v -0.557911 4.306676 1.078442
v -0.637063 4.240404 1.088234
v -0.949849 4.120706 1.001539
v -0.880617 4.057367 1.045677
v -0.430582 4.738087 1.037789
v -0.361351 4.674748 1.081927
v -0.385177 4.723546 0.945703
v -0.315945 4.660207 0.989841
v -0.934229 4.099713 0.937697
v -0.864998 4.036374 0.981835
v -0.642024 4.515013 1.085725
v -0.572792 4.451674 1.129863
v -0.527387 4.437133 1.037776
v -0.596618 4.500472 0.993638
v -0.822447 4.317689 1.075166
v -0.753215 4.254350 1.119304
v -0.707810 4.239810 1.027218
v -0.777041 4.303149 0.983079
vt 0.476980 0.416902
vt 0.478795 0.420136
vt 0.465663 0.427078
vt 0.463695 0.423899
vt 0.462896 0.425082
vt 0.460926 0.421927
vt 0.475860 0.418250
vt 0.474040 0.415041
vt 0.492326 0.399615
vt 0.493911 0.402898
vt 0.495384 0.404596
vt 0.493799 0.401299
vt 0.486975 0.409185
vt 0.488665 0.412467
vt 0.485625 0.410706
vt 0.483926 0.407452
vt 0.483743 0.420441
vt 0.487265 0.417449
vt 0.490821 0.427848
vt 0.487425 0.430829
vt 0.488449 0.427094
vt 0.485091 0.430022
vt 0.484883 0.416842
vt 0.481402 0.419781
vt 0.469943 0.400289
vt 0.473620 0.397401
vt 0.475631 0.398184
vt 0.471934 0.401106
vt 0.478403 0.410805
vt 0.482033 0.407826
vt 0.479692 0.407367
vt 0.476105 0.410293
vt 0.418495 0.417034
vt 0.422179 0.420164
vt 0.416207 0.426792
vt 0.412642 0.423766
vt 0.418138 0.424897
vt 0.414634 0.421921
vt 0.424071 0.418321
vt 0.420451 0.415245
vt 0.433238 0.398888
vt 0.436989 0.402079
vt 0.435540 0.403830
vt 0.431749 0.400605
vt 0.424424 0.409117
vt 0.428189 0.412318
vt 0.430015 0.410574
vt 0.426317 0.407430
vt 0.425683 0.420440
vt 0.428713 0.417388
vt 0.438797 0.428090
vt 0.435718 0.431071
vt 0.441467 0.427299
vt 0.438425 0.430235
vt 0.431561 0.416777
vt 0.428566 0.419780
vt 0.414140 0.401365
vt 0.416996 0.398318
vt 0.415619 0.399022
vt 0.412737 0.402101
vt 0.417586 0.411087
vt 0.420549 0.408002
vt 0.423515 0.407553
vt 0.420586 0.410588
vn 0.386238 0.544994 0.744178
vn 0.387865 0.543940 0.744103
vn 0.314561 0.588558 0.744749
vn 0.314561 0.588558 0.744749
vn -0.713337 0.663402 0.225938
vn -0.713337 0.663402 0.225938
vn -0.713337 0.663402 0.225938
vn -0.713337 0.663402 0.225938
vn -0.314560 -0.588558 -0.744749
vn -0.314560 -0.588558 -0.744749
vn -0.387864 -0.543940 -0.744104
vn -0.386237 -0.544994 -0.744179
vn 0.842195 -0.538226 -0.031951
vn 0.842195 -0.538226 -0.031951
vn 0.842194 -0.538226 -0.031951
vn 0.842194 -0.538226 -0.031951
vn 0.373129 0.648314 -0.663674
vn 0.365162 0.655509 -0.661033
vn 0.344907 0.673268 -0.654026
vn 0.344907 0.673268 -0.654026
vn -0.365162 -0.655509 0.661033
vn -0.373128 -0.648314 0.663675
vn -0.344907 -0.673268 0.654026
vn -0.344907 -0.673268 0.654026
vn 0.580155 0.395315 0.712143
vn 0.580113 0.395352 0.712155
vn 0.380645 0.631494 -0.675518
vn 0.381445 0.631300 -0.675248
vn -0.527850 -0.440999 -0.725874
vn -0.528480 -0.440476 -0.725734
vn -0.381445 -0.631300 0.675248
vn -0.380645 -0.631495 0.675517
vn 0.688050 0.284236 0.667680
vn 0.688050 0.284236 0.667680
vn 0.362069 0.635864 -0.681603
vn 0.362069 0.635864 -0.681603
vn -0.586820 -0.389158 -0.710069
vn -0.586820 -0.389158 -0.710069
vn -0.362071 -0.635866 0.681600
vn -0.362071 -0.635866 0.681600
vn 0.559378 0.333684 0.758783
vn 0.558658 0.332291 0.759924
vn 0.588480 0.392685 0.706746
vn 0.588480 0.392685 0.706746
vn 0.500730 0.779259 -0.376862
vn 0.500730 0.779259 -0.376862
vn 0.500730 0.779259 -0.376862
vn 0.500730 0.779259 -0.376862
vn -0.588479 -0.392686 -0.706746
vn -0.588479 -0.392686 -0.706746
vn -0.558658 -0.332292 -0.759924
vn -0.559378 -0.333685 -0.758782
vn -0.366140 -0.715272 0.595255
vn -0.366140 -0.715272 0.595255
vn -0.366140 -0.715272 0.595255
vn -0.366140 -0.715272 0.595255
vn 0.748315 -0.599860 -0.283183
vn 0.753690 -0.591115 -0.287288
vn 0.766814 -0.568779 -0.297467
vn 0.766814 -0.568779 -0.297467
vn -0.753690 0.591116 0.287287
vn -0.748315 0.599860 0.283182
vn -0.766814 0.568780 0.297466
vn -0.766814 0.568780 0.297466
vn 0.451422 0.147472 0.880040
vn 0.451450 0.147516 0.880018
vn 0.734013 -0.616315 -0.285274
vn 0.733956 -0.616732 -0.284517
vn -0.485418 -0.202138 -0.850594
vn -0.485033 -0.201502 -0.850964
vn -0.733956 0.616733 0.284515
vn -0.734013 0.616315 0.285272
vn 0.365824 0.020633 0.930455
vn 0.365824 0.020633 0.930455
vn 0.735174 -0.606534 -0.302714
vn 0.735174 -0.606534 -0.302714
vn -0.446779 -0.140225 -0.883587
vn -0.446779 -0.140225 -0.883587
vn -0.735175 0.606535 0.302711
vn -0.735175 0.606535 0.302711
vn -0.362808 0.544994 0.755878
vn -0.361771 0.543940 0.757134
vn -0.406329 0.588557 0.698926
vn -0.406329 0.588557 0.698926
vn -0.609207 0.663402 -0.434471
vn -0.609207 0.663402 -0.434471
vn -0.609207 0.663402 -0.434471
vn -0.609207 0.663402 -0.434471
vn 0.406329 -0.588558 -0.698925
vn 0.406329 -0.588558 -0.698925
vn 0.361771 -0.543941 -0.757133
vn 0.362808 -0.544994 -0.755878
vn 0.531564 -0.538229 0.654026
vn 0.531564 -0.538229 0.654026
vn 0.531564 -0.538229 0.654026
vn 0.531564 -0.538229 0.654026
vn 0.754712 0.648314 -0.100492
vn 0.747814 0.655509 -0.105274
vn 0.730043 0.673267 -0.117255
vn 0.730043 0.673267 -0.117255
vn -0.747814 -0.655508 0.105275
vn -0.754712 -0.648314 0.100493
vn -0.730043 -0.673267 0.117255
vn -0.730043 -0.673267 0.117255
vn -0.220688 0.395316 0.891640
vn -0.220723 0.395353 0.891615
vn 0.768695 0.631495 -0.101601
vn 0.768960 0.631300 -0.100800
vn 0.263091 -0.441000 -0.858080
vn 0.262601 -0.440477 -0.858499
vn -0.768960 -0.631300 0.100799
vn -0.768695 -0.631495 0.101600
vn -0.120317 0.284236 0.951175
vn -0.120317 0.284236 0.951175
vn 0.762397 0.635865 -0.120107
vn 0.762397 0.635865 -0.120107
vn 0.215027 -0.389158 -0.895723
vn 0.215027 -0.389158 -0.895723
vn -0.762398 -0.635866 0.120101
vn -0.762398 -0.635866 0.120101
vn -0.270452 0.333685 0.903056
vn -0.271797 0.332291 0.903166
vn -0.211371 0.392685 0.895054
vn -0.211371 0.392685 0.895054
vn 0.602110 0.779260 0.173835
vn 0.602110 0.779260 0.173835
vn 0.602110 0.779260 0.173835
vn 0.602109 0.779260 0.173835
vn 0.211371 -0.392686 -0.895053
vn 0.211371 -0.392686 -0.895053
vn 0.271797 -0.332292 -0.903166
vn 0.270452 -0.333685 -0.903056
vn -0.695819 -0.715273 0.064965
vn -0.695818 -0.715273 0.064965
vn -0.695818 -0.715273 0.064965
vn -0.695819 -0.715273 0.064965
vn 0.675984 -0.599860 0.428035
vn 0.682495 -0.591115 0.429865
vn 0.698518 -0.568779 0.434239
vn 0.698518 -0.568779 0.434239
vn -0.682495 0.591115 -0.429865
vn -0.675984 0.599860 -0.428034
vn -0.698517 0.568779 -0.434240
vn -0.698517 0.568779 -0.434240
vn -0.432247 0.147472 0.889615
vn -0.432213 0.147516 0.889624
vn 0.669062 -0.616315 0.415346
vn 0.668423 -0.616732 0.415755
vn 0.388281 -0.202138 -0.899099
vn 0.388808 -0.201502 -0.899013
vn -0.668423 0.616732 -0.415755
vn -0.669062 0.616315 -0.415345
vn -0.523979 0.020633 0.851481
vn -0.523979 0.020633 0.851481
vn 0.683701 -0.606534 0.405795
vn 0.683701 -0.606534 0.405795
vn 0.437871 -0.140225 -0.888035
vn 0.437871 -0.140225 -0.888035
vn -0.683701 0.606533 -0.405796
vn -0.683701 0.606533 -0.405796
s 1
g fluff_BASE_UP:fluff_BASE_UP:pCube2
usemtl initialShadingGroup
f 9/1/1 10/2/2 4/3/3 3/4/4
s off
f 3/4/5 4/3/6 6/5/7 5/6/8
s 2
f 5/6/9 6/5/10 11/7/11 12/8/12
s off
f 7/9/13 8/10/14 2/11/15 1/12/16
s 3
f 10/2/17 11/7/18 6/5/19 4/3/20
s 4
f 12/8/21 9/1/22 3/4/23 5/6/24
s 1
f 13/13/25 14/14/26 10/2/2 9/1/1
s 3
f 14/14/27 15/15/28 11/7/18 10/2/17
s 2
f 12/8/12 11/7/11 15/15/29 16/16/30
s 4
f 16/16/31 13/13/32 9/1/22 12/8/21
s 1
f 1/12/33 2/11/34 14/14/26 13/13/25
s 3
f 2/11/35 8/10/36 15/15/28 14/14/27
s 2
f 16/16/30 15/15/29 8/10/37 7/9/38
s 4
f 7/9/39 1/12/40 13/13/32 16/16/31
s 5
f 25/17/41 26/18/42 20/19/43 19/20/44
s off
f 19/20/45 20/19/46 22/21/47 21/22/48
s 6
f 21/22/49 22/21/50 27/23/51 28/24/52
s off
f 23/25/53 24/26/54 18/27/55 17/28/56
s 7
f 26/18/57 27/23/58 22/21/59 20/19/60
s 8
f 28/24/61 25/17/62 19/20/63 21/22/64
s 5
f 29/29/65 30/30/66 26/18/42 25/17/41
s 7
f 30/30/67 31/31/68 27/23/58 26/18/57
s 6
f 28/24/52 27/23/51 31/31/69 32/32/70
s 8
f 32/32/71 29/29/72 25/17/62 28/24/61
s 5
f 17/28/73 18/27/74 30/30/66 29/29/65
s 7
f 18/27/75 24/26/76 31/31/68 30/30/67
s 6
f 32/32/70 31/31/69 24/26/77 23/25/78
s 8
f 23/25/79 17/28/80 29/29/72 32/32/71
s 9
f 41/33/81 42/34/82 36/35/83 35/36/84
s off
f 35/36/85 36/35/86 38/37/87 37/38/88
s 10
f 37/38/89 38/37/90 43/39/91 44/40/92
s off
f 39/41/93 40/42/94 34/43/95 33/44/96
s 11
f 42/34/97 43/39/98 38/37/99 36/35/100
s 12
f 44/40/101 41/33/102 35/36/103 37/38/104
s 9
f 45/45/105 46/46/106 42/34/82 41/33/81
s 11
f 46/46/107 47/47/108 43/39/98 42/34/97
s 10
f 44/40/92 43/39/91 47/47/109 48/48/110
s 12
f 48/48/111 45/45/112 41/33/102 44/40/101
s 9
f 33/44/113 34/43/114 46/46/106 45/45/105
s 11
f 34/43/115 40/42/116 47/47/108 46/46/107
s 10
f 48/48/110 47/47/109 40/42/117 39/41/118
s 12
f 39/41/119 33/44/120 45/45/112 48/48/111
s 13
f 57/49/121 58/50/122 52/51/123 51/52/124
s off
f 51/52/125 52/51/126 54/53/127 53/54/128
s 14
f 53/54/129 54/53/130 59/55/131 60/56/132
s off
f 55/57/133 56/58/134 50/59/135 49/60/136
s 15
f 58/50/137 59/55/138 54/53/139 52/51/140
s 16
f 60/56/141 57/49/142 51/52/143 53/54/144
s 13
f 61/61/145 62/62/146 58/50/122 57/49/121
s 15
f 62/62/147 63/63/148 59/55/138 58/50/137
s 14
f 60/56/132 59/55/131 63/63/149 64/64/150
s 16
f 64/64/151 61/61/152 57/49/142 60/56/141
s 13
f 49/60/153 50/59/154 62/62/146 61/61/145
s 15
f 50/59/155 56/58/156 63/63/148 62/62/147
s 14
f 64/64/150 63/63/149 56/58/157 55/57/158
s 16
f 55/57/159 49/60/160 61/61/152 64/64/151
